<svg width="1242" height="711" viewBox="0 0 1242 711" fill="none" xmlns="http://www.w3.org/2000/svg">
<g clip-path="url(#clip0_2134_34)">
<path fill-rule="evenodd" clip-rule="evenodd" d="M137 481.58C137 525.531 172.627 561.161 216.573 561.161C260.519 561.161 296.143 525.531 296.143 481.58C296.143 437.629 260.519 402 216.573 402C172.627 402 137 437.629 137 481.58" fill="url(#paint0_linear_2134_34)"/>
<path fill-rule="evenodd" clip-rule="evenodd" d="M156.261 481.58C156.261 514.894 183.262 541.898 216.573 541.898C249.881 541.898 276.884 514.894 276.884 481.58C276.884 448.267 249.881 421.261 216.573 421.261C183.262 421.261 156.261 448.267 156.261 481.58" fill="#FFFFFE"/>
<path fill-rule="evenodd" clip-rule="evenodd" d="M173.493 481.58C173.493 505.374 192.781 524.664 216.573 524.664C240.365 524.664 259.652 505.374 259.652 481.58C259.652 457.785 240.365 438.495 216.573 438.495C192.781 438.495 173.493 457.785 173.493 481.58" fill="url(#paint1_linear_2134_34)"/>
<path fill-rule="evenodd" clip-rule="evenodd" d="M186.923 481.58C186.923 497.957 200.199 511.233 216.573 511.233C232.947 511.233 246.222 497.957 246.222 481.58C246.222 465.204 232.947 451.926 216.573 451.926C200.199 451.926 186.923 465.204 186.923 481.58" fill="#FFFFFE"/>
<path fill-rule="evenodd" clip-rule="evenodd" d="M202.888 481.58C202.888 489.138 209.015 495.266 216.573 495.266C224.13 495.266 230.257 489.138 230.257 481.58C230.257 474.021 224.13 467.894 216.573 467.894C209.015 467.894 202.888 474.021 202.888 481.58" fill="url(#paint2_linear_2134_34)"/>
<path fill-rule="evenodd" clip-rule="evenodd" d="M124.932 670.111C118.425 655.074 93.1205 629.238 107.091 613.694C118.972 600.471 151.056 613.093 153.227 593.168C154.511 581.383 154.571 570.986 165.794 560.786C178.019 549.672 198.75 564.695 210.936 554.651C221.402 546.022 217.948 526.256 234.584 523.654C249.353 521.344 260.507 538.967 259.123 550.895C257.394 565.81 241.396 567.845 235.631 579.43C231.962 586.807 238.133 591.816 240.397 598.566C242.565 605.028 243.595 613.635 241.742 620.152C236.177 639.736 214.174 635.296 200.103 644.296C187.071 652.629 201.819 665.586 195.191 677.121C188.041 689.567 166.638 690.632 153.322 686.048C144.085 682.87 128.963 679.428 124.932 670.111" fill="#245394"/>
<path fill-rule="evenodd" clip-rule="evenodd" d="M136.331 680.899L136.112 680.742C135.743 680.396 135.754 679.875 136.135 679.583C136.408 679.366 164.644 657.122 177.451 621.737C185.985 598.146 200.883 586.145 213.105 576.297C220.488 570.351 226.923 565.164 229.743 558.775C229.976 558.254 230.607 557.995 231.157 558.202C231.729 558.41 231.965 559.003 231.736 559.522C228.702 566.36 222.078 571.683 214.485 577.787C202.453 587.458 187.774 599.251 179.377 622.345C166.356 658.144 137.744 680.619 137.464 680.835C137.153 681.076 136.689 681.091 136.331 680.899" fill="#FFFFFE"/>
<path fill-rule="evenodd" clip-rule="evenodd" d="M179.038 622.361C178.613 622.12 178.43 621.637 178.626 621.219C178.838 620.759 179.432 620.551 179.95 620.755C187.805 623.859 200.042 622.685 205.836 615.936C206.533 615.125 207.262 614.213 208.029 613.253C211.705 608.652 216.321 602.879 222.245 602.196C225.141 601.865 228.057 602.817 230.888 604.961C231.326 605.296 231.377 605.892 231.004 606.289C230.632 606.69 230.016 606.732 229.541 606.416C227.109 604.575 224.818 603.808 222.486 604.072C217.464 604.651 213.141 610.046 209.695 614.344C208.913 615.321 208.166 616.247 207.459 617.073C200.871 624.723 187.685 625.788 179.173 622.424L179.038 622.361" fill="#FFFFFE"/>
<path fill-rule="evenodd" clip-rule="evenodd" d="M173.648 619.597C170.203 617.542 167.914 614.987 166.833 611.964C165.111 607.168 166.531 601.255 170.992 594.84C171.434 594.203 171.969 593.475 172.557 592.677C175.892 588.142 180.986 581.218 179.886 576.087C179.523 574.383 178.497 573.021 176.759 571.923C176.272 571.614 176.132 570.996 176.451 570.545C176.767 570.097 177.415 569.977 177.904 570.277L177.912 570.283C180.12 571.68 181.478 573.515 181.952 575.736C183.214 581.673 177.814 588.992 174.277 593.78C173.705 594.561 173.178 595.273 172.742 595.898C168.611 601.826 167.25 607.192 168.771 611.443C170.067 615.071 173.475 617.964 178.863 620.054C179.409 620.261 179.632 620.799 179.427 621.259C179.214 621.722 178.624 621.938 178.105 621.736C176.45 621.096 174.965 620.383 173.648 619.597" fill="#FFFFFE"/>
<path fill-rule="evenodd" clip-rule="evenodd" d="M143.741 668.915C142.678 668.337 141.698 667.583 140.807 666.658C135.82 661.468 134.935 652.069 135.571 646.971C135.917 644.234 137.799 641.088 139.804 637.738C143.007 632.385 146.354 626.799 143.492 622.815C143.183 622.386 143.308 621.828 143.771 621.569C144.23 621.311 144.856 621.461 145.168 621.885C148.683 626.793 144.885 633.119 141.567 638.64C139.64 641.842 137.834 644.851 137.53 647.267C136.946 651.879 137.729 660.891 142.266 665.621C144.025 667.455 146.204 668.467 148.729 668.626C149.257 668.666 149.686 669.065 149.681 669.53C149.664 669.994 149.225 670.34 148.691 670.306C146.881 670.186 145.226 669.72 143.741 668.915" fill="#FFFFFE"/>
<path fill-rule="evenodd" clip-rule="evenodd" d="M102.28 706.382C82.2145 705.696 64.1363 709.883 53.0903 689.645C44.3499 673.63 56.6053 655.536 40.2128 646.053C30.3473 640.347 15.7883 638.188 10.9511 626.671C5.91259 614.671 20.7057 604.428 16.086 592.884C12.2671 583.344 -1.55068 584.697 0.143186 571.297C1.64405 559.408 11.2693 555.056 19.5908 556.167C30.7169 557.65 33.0349 567.293 41.1141 573.038C46.5078 576.872 52.5421 571.34 59.3627 569.488C66.1525 567.642 75.092 566.962 81.3952 569.153C101.861 576.27 89.6962 599.484 95.6524 616.055C101.412 632.075 123.192 618.689 137.018 629.328C153.166 641.755 146.255 668.353 134.168 682.201C126.113 691.427 115.839 706.846 102.28 706.382" fill="#B4B8C3"/>
<path fill-rule="evenodd" clip-rule="evenodd" d="M120.51 699.304L120.215 699.47C119.603 699.71 118.894 699.431 118.632 698.852C118.434 698.431 99.4878 657.784 64.4197 634.328C44.6785 621.127 38.1494 605.457 33.0473 593.213C30.0702 586.069 27.5345 579.987 23.3235 577.112C22.9867 576.878 22.9354 576.317 23.2146 575.851C23.5021 575.369 24.001 575.198 24.3398 575.426C28.8752 578.5 31.4992 584.767 34.583 592.131C39.642 604.211 46.1116 619.669 65.5715 632.572C101.309 656.277 120.635 697.554 120.833 697.983C121.052 698.46 120.904 698.996 120.51 699.304" fill="#FFFFFE"/>
<path fill-rule="evenodd" clip-rule="evenodd" d="M65.4914 632.911C65.1321 633.273 64.5983 633.34 64.2369 633.049C63.8406 632.73 63.7996 632.098 64.1507 631.636C69.5094 624.541 71.8357 612.038 66.6555 605.137C66.0457 604.322 65.3477 603.463 64.6167 602.566C61.1592 598.328 56.9338 593.143 57.8885 587.35C58.3566 584.514 60.0443 581.763 62.8695 579.163C63.313 578.757 63.9022 578.751 64.1876 579.149C64.471 579.547 64.3437 580.157 63.9043 580.601C61.461 582.835 60.1059 585.005 59.724 587.299C58.911 592.237 62.9023 597.1 66.1607 601.077C66.9101 601.989 67.6246 602.868 68.2529 603.693C74.1907 611.56 71.4558 625.075 65.594 632.794L65.4914 632.911" fill="#FFFFFE"/>
<path fill-rule="evenodd" clip-rule="evenodd" d="M61.2434 637.531C58.2951 640.359 55.2358 641.907 52.115 642.164C47.2778 642.568 42.4097 639.79 38.0262 634.223C37.5991 633.681 37.1187 633.034 36.5972 632.33C33.657 628.377 29.292 622.505 25.0071 622.533C23.6109 622.544 22.3338 623.184 21.1019 624.484C20.759 624.845 20.2622 624.852 19.9973 624.494C19.7345 624.141 19.792 623.564 20.1287 623.201L20.1349 623.192C21.6912 621.544 23.3994 620.691 25.2185 620.669C30.1872 620.613 34.8274 626.821 37.9523 631.004C38.4697 631.694 38.944 632.326 39.3649 632.86C43.4404 638.008 47.8609 640.57 52.152 640.195C55.899 639.864 59.605 637.295 63.1508 632.54C63.5081 632.055 64.1035 631.958 64.5038 632.271C64.9022 632.589 64.9494 633.219 64.6044 633.683C63.5019 635.158 62.3809 636.439 61.2434 637.531" fill="#FFFFFE"/>
<path fill-rule="evenodd" clip-rule="evenodd" d="M115.396 679.074C114.271 680 113.014 680.723 111.618 681.174C111.006 681.371 110.351 681.063 110.154 680.478C109.957 679.895 110.271 679.271 110.899 679.061C118.19 676.665 121.377 663.94 121.077 657.519C120.952 654.848 119.572 651.724 118.114 648.439C115.552 642.634 112.924 636.696 116.531 631.581C116.905 630.999 117.658 630.835 118.188 631.143C118.726 631.453 118.849 632.141 118.461 632.683C115.591 636.739 117.997 642.143 120.338 647.418C121.886 650.897 123.356 654.205 123.5 657.281C123.775 663.072 121.533 674.024 115.396 679.074" fill="#FFFFFE"/>
<path fill-rule="evenodd" clip-rule="evenodd" d="M107.193 685.256C106.089 686.166 104.797 686.899 103.323 687.454C95.2623 690.482 83.9843 687.273 78.49 684.474C75.6115 683.004 72.8048 679.85 69.8708 676.554C65.2964 671.414 60.6644 666.207 55.9996 667.632C55.5028 667.784 55.0038 667.478 54.8827 666.948C54.7636 666.425 55.0798 665.874 55.5685 665.716C61.3173 663.938 66.5837 669.823 71.3368 675.133C74.1599 678.291 76.8619 681.306 79.416 682.595C84.399 685.109 95.1946 688.187 102.516 685.402C105.426 684.293 107.466 682.347 108.544 679.63C108.776 679.061 109.439 678.757 110.041 678.965C110.639 679.18 110.938 679.819 110.706 680.398C109.922 682.353 108.743 683.979 107.193 685.256" fill="#FFFFFE"/>
<rect x="99" y="506" width="75" height="200" fill="url(#paint3_linear_2134_34)"/>
<path fill-rule="evenodd" clip-rule="evenodd" d="M94.0817 508.167C87.4069 508.167 81.9988 502.758 81.9988 496.084C81.9988 489.411 87.4069 484 94.0817 484C100.752 484 106.163 489.411 106.163 496.084C106.163 502.758 100.752 508.167 94.0817 508.167ZM116.942 499.109C117.071 498.117 117.161 497.111 117.161 496.084C117.161 495.056 117.071 494.051 116.942 493.06L112.279 492.329C112.133 491.616 111.934 490.924 111.708 490.242L115.406 487.259C114.626 485.374 113.591 483.626 112.365 482.033L107.941 483.739C107.464 483.205 106.957 482.698 106.423 482.222L108.129 477.797C106.536 476.571 104.789 475.536 102.904 474.756L99.9209 478.454C99.2393 478.228 98.5474 478.029 97.8349 477.883L97.104 473.22C96.1123 473.09 95.1083 473 94.0797 473C93.0531 473 92.0491 473.09 91.0553 473.22L90.3265 477.883C89.614 478.029 88.92 478.228 88.2404 478.454L85.2572 474.756C83.3724 475.536 81.6251 476.571 80.0319 477.797L81.7381 482.222C81.2022 482.698 80.6971 483.205 80.2208 483.739L75.7962 482.033C74.5705 483.626 73.5357 485.374 72.7555 487.259L76.4512 490.242C76.2274 490.924 76.0282 491.616 75.8804 492.329L71.2197 493.06C71.0883 494.051 71 495.056 71 496.084C71 497.111 71.0883 498.117 71.2197 499.109L75.8804 499.838C76.0282 500.553 76.2274 501.245 76.4512 501.924L72.7555 504.91C73.5357 506.793 74.5705 508.54 75.7962 510.134L80.2208 508.427C80.6971 508.961 81.2022 509.468 81.7381 509.945L80.0319 514.37C81.6251 515.596 83.3724 516.633 85.2572 517.413L88.2404 513.715C88.92 513.941 89.614 514.138 90.3265 514.286L91.0553 518.947C92.0491 519.076 93.0531 519.169 94.0797 519.169C95.1083 519.169 96.1123 519.076 97.104 518.947L97.8349 514.286C98.5474 514.138 99.2393 513.939 99.9209 513.715L102.904 517.413C104.789 516.633 106.536 515.596 108.129 514.37L106.423 509.945C106.957 509.468 107.464 508.961 107.941 508.427L112.365 510.134C113.591 508.54 114.626 506.793 115.406 504.91L111.708 501.924C111.934 501.245 112.133 500.553 112.279 499.838L116.942 499.109V499.109Z" fill="#EB8E3E"/>
<path fill-rule="evenodd" clip-rule="evenodd" d="M94.0797 504.532C89.4149 504.532 85.633 500.75 85.633 496.084C85.633 491.417 89.4149 487.637 94.0797 487.637C98.7466 487.637 102.528 491.417 102.528 496.084C102.528 500.75 98.7466 504.532 94.0797 504.532ZM94.0818 482.495C86.5774 482.495 80.4939 488.579 80.4939 496.084C80.4939 503.588 86.5774 509.672 94.0818 509.672C101.584 509.672 107.668 503.588 107.668 496.084C107.668 488.579 101.584 482.495 94.0818 482.495V482.495Z" fill="#0C0A21"/>
<path fill-rule="evenodd" clip-rule="evenodd" d="M197.082 541.167C190.407 541.167 184.999 535.758 184.999 529.084C184.999 522.411 190.407 517 197.082 517C203.752 517 209.163 522.411 209.163 529.084C209.163 535.758 203.752 541.167 197.082 541.167ZM219.942 532.109C220.071 531.117 220.161 530.111 220.161 529.084C220.161 528.056 220.071 527.051 219.942 526.06L215.279 525.329C215.133 524.616 214.934 523.924 214.708 523.242L218.406 520.259C217.626 518.374 216.591 516.626 215.365 515.033L210.941 516.739C210.464 516.205 209.957 515.698 209.423 515.222L211.129 510.797C209.536 509.571 207.789 508.536 205.904 507.756L202.921 511.454C202.239 511.228 201.547 511.029 200.835 510.883L200.104 506.22C199.112 506.09 198.108 506 197.08 506C196.053 506 195.049 506.09 194.055 506.22L193.326 510.883C192.614 511.029 191.92 511.228 191.24 511.454L188.257 507.756C186.372 508.536 184.625 509.571 183.032 510.797L184.738 515.222C184.202 515.698 183.697 516.205 183.221 516.739L178.796 515.033C177.57 516.626 176.536 518.374 175.755 520.259L179.451 523.242C179.227 523.924 179.028 524.616 178.88 525.329L174.22 526.06C174.088 527.051 174 528.056 174 529.084C174 530.111 174.088 531.117 174.22 532.109L178.88 532.838C179.028 533.553 179.227 534.245 179.451 534.924L175.755 537.91C176.536 539.793 177.57 541.54 178.796 543.134L183.221 541.427C183.697 541.961 184.202 542.468 184.738 542.945L183.032 547.37C184.625 548.596 186.372 549.633 188.257 550.413L191.24 546.715C191.92 546.941 192.614 547.138 193.326 547.286L194.055 551.947C195.049 552.076 196.053 552.169 197.08 552.169C198.108 552.169 199.112 552.076 200.104 551.947L200.835 547.286C201.547 547.138 202.239 546.939 202.921 546.715L205.904 550.413C207.789 549.633 209.536 548.596 211.129 547.37L209.423 542.945C209.957 542.468 210.464 541.961 210.941 541.427L215.365 543.134C216.591 541.54 217.626 539.793 218.406 537.91L214.708 534.924C214.934 534.245 215.133 533.553 215.279 532.838L219.942 532.109V532.109Z" fill="#EB8E3E"/>
<path fill-rule="evenodd" clip-rule="evenodd" d="M197.08 537.532C192.415 537.532 188.633 533.75 188.633 529.084C188.633 524.417 192.415 520.637 197.08 520.637C201.747 520.637 205.528 524.417 205.528 529.084C205.528 533.75 201.747 537.532 197.08 537.532ZM197.082 515.495C189.577 515.495 183.494 521.579 183.494 529.084C183.494 536.588 189.577 542.672 197.082 542.672C204.584 542.672 210.668 536.588 210.668 529.084C210.668 521.579 204.584 515.495 197.082 515.495V515.495Z" fill="#0C0A21"/>
<path fill-rule="evenodd" clip-rule="evenodd" d="M1020 -170V48.3667H1076.76V136.727H1133.52V225.085H1190.28V313.445L1247.04 313.445V401.805H1318.78V-170H1020" fill="url(#paint4_linear_2134_34)"/>
</g>
<defs>
<linearGradient id="paint0_linear_2134_34" x1="296.143" y1="402" x2="137" y2="402" gradientUnits="userSpaceOnUse">
<stop stop-color="#8C32F0"/>
<stop offset="1" stop-color="#E73587"/>
</linearGradient>
<linearGradient id="paint1_linear_2134_34" x1="259.652" y1="438.495" x2="173.493" y2="438.495" gradientUnits="userSpaceOnUse">
<stop stop-color="#8C32F0"/>
<stop offset="1" stop-color="#E73587"/>
</linearGradient>
<linearGradient id="paint2_linear_2134_34" x1="230.257" y1="467.894" x2="202.888" y2="467.894" gradientUnits="userSpaceOnUse">
<stop stop-color="#8C32F0"/>
<stop offset="1" stop-color="#E73587"/>
</linearGradient>
<linearGradient id="paint3_linear_2134_34" x1="174" y1="506" x2="99" y2="506" gradientUnits="userSpaceOnUse">
<stop stop-color="#8C32F0"/>
<stop offset="1" stop-color="#E73587"/>
</linearGradient>
<linearGradient id="paint4_linear_2134_34" x1="1020" y1="-170" x2="1020" y2="401.805" gradientUnits="userSpaceOnUse">
<stop stop-color="#8C32F0"/>
<stop offset="1" stop-color="#E73587"/>
</linearGradient>
<clipPath id="clip0_2134_34">
<rect width="1242" height="711" fill="white"/>
</clipPath>
</defs>
</svg>
