<svg width="600" height="750" viewBox="0 0 600 750" fill="none" xmlns="http://www.w3.org/2000/svg">
<g clip-path="url(#clip0_2134_34)">
<path fill-rule="evenodd" clip-rule="evenodd" d="M137 520.58C137 564.531 172.627 600.161 216.573 600.161C260.519 600.161 296.143 564.531 296.143 520.58C296.143 476.629 260.519 441 216.573 441C172.627 441 137 476.629 137 520.58" fill="url(#paint0_linear_2134_34)"/>
<path fill-rule="evenodd" clip-rule="evenodd" d="M156.261 520.58C156.261 553.894 183.262 580.898 216.573 580.898C249.881 580.898 276.884 553.894 276.884 520.58C276.884 487.267 249.881 460.261 216.573 460.261C183.262 460.261 156.261 487.267 156.261 520.58" fill="#FFFFFE"/>
<path fill-rule="evenodd" clip-rule="evenodd" d="M173.493 520.58C173.493 544.374 192.781 563.664 216.573 563.664C240.365 563.664 259.652 544.374 259.652 520.58C259.652 496.785 240.365 477.495 216.573 477.495C192.781 477.495 173.493 496.785 173.493 520.58" fill="url(#paint1_linear_2134_34)"/>
<path fill-rule="evenodd" clip-rule="evenodd" d="M186.923 520.58C186.923 536.957 200.199 550.233 216.573 550.233C232.947 550.233 246.222 536.957 246.222 520.58C246.222 504.204 232.947 490.926 216.573 490.926C200.199 490.926 186.923 504.204 186.923 520.58" fill="#FFFFFE"/>
<path fill-rule="evenodd" clip-rule="evenodd" d="M202.888 520.58C202.888 528.138 209.015 534.266 216.573 534.266C224.13 534.266 230.257 528.138 230.257 520.58C230.257 513.021 224.13 506.894 216.573 506.894C209.015 506.894 202.888 513.021 202.888 520.58" fill="url(#paint2_linear_2134_34)"/>
<path fill-rule="evenodd" clip-rule="evenodd" d="M124.932 709.111C118.425 694.074 93.1205 668.238 107.091 652.694C118.972 639.471 151.056 652.093 153.227 632.168C154.511 620.383 154.571 609.986 165.794 599.786C178.019 588.672 198.75 603.695 210.936 593.651C221.402 585.022 217.948 565.256 234.584 562.654C249.353 560.344 260.507 577.967 259.123 589.895C257.394 604.81 241.396 606.845 235.631 618.43C231.962 625.807 238.133 630.816 240.397 637.566C242.565 644.028 243.595 652.635 241.742 659.152C236.177 678.736 214.174 674.296 200.103 683.296C187.071 691.629 201.819 704.586 195.191 716.121C188.041 728.567 166.638 729.632 153.322 725.048C144.085 721.87 128.963 718.428 124.932 709.111" fill="#245394"/>
<path fill-rule="evenodd" clip-rule="evenodd" d="M136.331 719.899L136.112 719.742C135.743 719.396 135.754 718.875 136.135 718.583C136.408 718.366 164.644 696.122 177.451 660.737C185.985 637.146 200.883 625.145 213.105 615.297C220.488 609.351 226.923 604.164 229.743 597.775C229.976 597.254 230.607 596.995 231.157 597.202C231.729 597.41 231.965 598.003 231.736 598.522C228.702 605.36 222.078 610.683 214.485 616.787C202.453 626.458 187.774 638.251 179.377 661.345C166.356 697.144 137.744 719.619 137.464 719.835C137.153 720.076 136.689 720.091 136.331 719.899" fill="#FFFFFE"/>
<path fill-rule="evenodd" clip-rule="evenodd" d="M179.038 661.361C178.613 661.12 178.43 660.637 178.626 660.219C178.838 659.759 179.432 659.551 179.95 659.755C187.805 662.859 200.042 661.685 205.836 654.936C206.533 654.125 207.262 653.213 208.029 652.253C211.705 647.652 216.321 641.879 222.245 641.196C225.141 640.865 228.057 641.817 230.888 643.961C231.326 644.296 231.377 644.892 231.004 645.289C230.632 645.69 230.016 645.732 229.541 645.416C227.109 643.575 224.818 642.808 222.486 643.072C217.464 643.651 213.141 649.046 209.695 653.344C208.913 654.321 208.166 655.247 207.459 656.073C200.871 663.723 187.685 664.788 179.173 661.424L179.038 661.361" fill="#FFFFFE"/>
<path fill-rule="evenodd" clip-rule="evenodd" d="M173.648 658.597C170.203 656.542 167.914 653.987 166.833 650.964C165.111 646.168 166.531 640.255 170.992 633.84C171.434 633.203 171.969 632.475 172.557 631.677C175.892 627.142 180.986 620.218 179.886 615.087C179.523 613.383 178.497 612.021 176.759 610.923C176.272 610.614 176.132 609.996 176.451 609.545C176.767 609.097 177.415 608.977 177.904 609.277L177.912 609.283C180.12 610.68 181.478 612.515 181.952 614.736C183.214 620.673 177.814 627.992 174.277 632.78C173.705 633.561 173.178 634.273 172.742 634.898C168.611 640.826 167.25 646.192 168.771 650.443C170.067 654.071 173.475 656.964 178.863 659.054C179.409 659.261 179.632 659.799 179.427 660.259C179.214 660.722 178.624 660.938 178.105 660.736C176.45 660.096 174.965 659.383 173.648 658.597" fill="#FFFFFE"/>
<path fill-rule="evenodd" clip-rule="evenodd" d="M143.741 707.915C142.678 707.337 141.698 706.583 140.807 705.658C135.82 700.468 134.935 691.069 135.571 685.971C135.917 683.234 137.799 680.088 139.804 676.738C143.007 671.385 146.354 665.799 143.492 661.815C143.183 661.386 143.308 660.828 143.771 660.569C144.23 660.311 144.856 660.461 145.168 660.885C148.683 665.793 144.885 672.119 141.567 677.64C139.64 680.842 137.834 683.851 137.53 686.267C136.946 690.879 137.729 699.891 142.266 704.621C144.025 706.455 146.204 707.467 148.729 707.626C149.257 707.666 149.686 708.065 149.681 708.53C149.664 708.994 149.225 709.34 148.691 709.306C146.881 709.186 145.226 708.72 143.741 707.915" fill="#FFFFFE"/>
<path fill-rule="evenodd" clip-rule="evenodd" d="M102.28 745.382C82.2145 744.696 64.1363 748.883 53.0903 728.645C44.3499 712.63 56.6053 694.536 40.2128 685.053C30.3473 679.347 15.7883 677.188 10.9511 665.671C5.91259 653.671 20.7057 643.428 16.086 631.884C12.2671 622.344 -1.55068 623.697 0.143186 610.297C1.64405 598.408 11.2693 594.056 19.5908 595.167C30.7169 596.65 33.0349 606.293 41.1141 612.038C46.5078 615.872 52.5421 610.34 59.3627 608.488C66.1525 606.642 75.092 605.962 81.3952 608.153C101.861 615.27 89.6962 638.484 95.6524 655.055C101.412 671.075 123.192 657.689 137.018 668.328C153.166 680.755 146.255 707.353 134.168 721.201C126.113 730.427 115.839 745.846 102.28 745.382" fill="#B4B8C3"/>
<path fill-rule="evenodd" clip-rule="evenodd" d="M120.51 738.304L120.215 738.47C119.603 738.71 118.894 738.431 118.632 737.852C118.434 737.431 99.4878 696.784 64.4197 673.328C44.6785 660.127 38.1494 644.457 33.0473 632.213C30.0702 625.069 27.5345 618.987 23.3235 616.112C22.9867 615.878 22.9354 615.317 23.2146 614.851C23.5021 614.369 24.001 614.198 24.3398 614.426C28.8752 617.5 31.4992 623.767 34.583 631.131C39.642 643.211 46.1116 658.669 65.5715 671.572C101.309 695.277 120.635 736.554 120.833 736.983C121.052 737.46 120.904 737.996 120.51 738.304" fill="#FFFFFE"/>
<path fill-rule="evenodd" clip-rule="evenodd" d="M65.4914 671.911C65.1321 672.273 64.5983 672.34 64.2369 672.049C63.8406 671.73 63.7996 671.098 64.1507 670.636C69.5094 663.541 71.8357 651.038 66.6555 644.137C66.0457 643.322 65.3477 642.463 64.6167 641.566C61.1592 637.328 56.9338 632.143 57.8885 626.35C58.3566 623.514 60.0443 620.763 62.8695 618.163C63.313 617.757 63.9022 617.751 64.1876 618.149C64.471 618.547 64.3437 619.157 63.9043 619.601C61.461 621.835 60.1059 624.005 59.724 626.299C58.911 631.237 62.9023 636.1 66.1607 640.077C66.9101 640.989 67.6246 641.868 68.2529 642.693C74.1907 650.56 71.4558 664.075 65.594 671.794L65.4914 671.911" fill="#FFFFFE"/>
<path fill-rule="evenodd" clip-rule="evenodd" d="M61.2434 676.531C58.2951 679.359 55.2358 680.907 52.115 681.164C47.2778 681.568 42.4097 678.79 38.0262 673.223C37.5991 672.681 37.1187 672.034 36.5972 671.33C33.657 667.377 29.292 661.505 25.0071 661.533C23.6109 661.544 22.3338 662.184 21.1019 663.484C20.759 663.845 20.2622 663.852 19.9973 663.494C19.7345 663.141 19.792 662.564 20.1287 662.201L20.1349 662.192C21.6912 660.544 23.3994 659.691 25.2185 659.669C30.1872 659.613 34.8274 665.821 37.9523 670.004C38.4697 670.694 38.944 671.326 39.3649 671.86C43.4404 677.008 47.8609 679.57 52.152 679.195C55.899 678.864 59.605 676.295 63.1508 671.54C63.5081 671.055 64.1035 670.958 64.5038 671.271C64.9022 671.589 64.9494 672.219 64.6044 672.683C63.5019 674.158 62.3809 675.439 61.2434 676.531" fill="#FFFFFE"/>
<path fill-rule="evenodd" clip-rule="evenodd" d="M115.396 718.074C114.271 719 113.014 719.723 111.618 720.174C111.006 720.371 110.351 720.063 110.154 719.478C109.957 718.895 110.271 718.271 110.899 718.061C118.19 715.665 121.377 702.94 121.077 696.519C120.952 693.848 119.572 690.724 118.114 687.439C115.552 681.634 112.924 675.696 116.531 670.581C116.905 669.999 117.658 669.835 118.188 670.143C118.726 670.453 118.849 671.141 118.461 671.683C115.591 675.739 117.997 681.143 120.338 686.418C121.886 689.897 123.356 693.205 123.5 696.281C123.775 702.072 121.533 713.024 115.396 718.074" fill="#FFFFFE"/>
<path fill-rule="evenodd" clip-rule="evenodd" d="M107.193 724.256C106.089 725.166 104.797 725.899 103.323 726.454C95.2623 729.482 83.9843 726.273 78.49 723.474C75.6115 722.004 72.8048 718.85 69.8708 715.554C65.2964 710.414 60.6644 705.207 55.9996 706.632C55.5028 706.784 55.0038 706.478 54.8827 705.948C54.7636 705.425 55.0798 704.874 55.5685 704.716C61.3173 702.938 66.5837 708.823 71.3368 714.133C74.1599 717.291 76.8619 720.306 79.416 721.595C84.399 724.109 95.1946 727.187 102.516 724.402C105.426 723.293 107.466 721.347 108.544 718.63C108.776 718.061 109.439 717.757 110.041 717.965C110.639 718.18 110.938 718.819 110.706 719.398C109.922 721.353 108.743 722.979 107.193 724.256" fill="#FFFFFE"/>
<rect x="99" y="545" width="75" height="200" fill="url(#paint3_linear_2134_34)"/>
<path fill-rule="evenodd" clip-rule="evenodd" d="M94.0817 547.167C87.4069 547.167 81.9988 541.758 81.9988 535.084C81.9988 528.411 87.4069 523 94.0817 523C100.752 523 106.163 528.411 106.163 535.084C106.163 541.758 100.752 547.167 94.0817 547.167ZM116.942 538.109C117.071 537.117 117.161 536.111 117.161 535.084C117.161 534.056 117.071 533.051 116.942 532.06L112.279 531.329C112.133 530.616 111.934 529.924 111.708 529.242L115.406 526.259C114.626 524.374 113.591 522.626 112.365 521.033L107.941 522.739C107.464 522.205 106.957 521.698 106.423 521.222L108.129 516.797C106.536 515.571 104.789 514.536 102.904 513.756L99.9209 517.454C99.2393 517.228 98.5474 517.029 97.8349 516.883L97.104 512.22C96.1123 512.09 95.1083 512 94.0797 512C93.0531 512 92.0491 512.09 91.0553 512.22L90.3265 516.883C89.614 517.029 88.92 517.228 88.2404 517.454L85.2572 513.756C83.3724 514.536 81.6251 515.571 80.0319 516.797L81.7381 521.222C81.2022 521.698 80.6971 522.205 80.2208 522.739L75.7962 521.033C74.5705 522.626 73.5357 524.374 72.7555 526.259L76.4512 529.242C76.2274 529.924 76.0282 530.616 75.8804 531.329L71.2197 532.06C71.0883 533.051 71 534.056 71 535.084C71 536.111 71.0883 537.117 71.2197 538.109L75.8804 538.838C76.0282 539.553 76.2274 540.245 76.4512 540.924L72.7555 543.91C73.5357 545.793 74.5705 547.54 75.7962 549.134L80.2208 547.427C80.6971 547.961 81.2022 548.468 81.7381 548.945L80.0319 553.37C81.6251 554.596 83.3724 555.633 85.2572 556.413L88.2404 552.715C88.92 552.941 89.614 553.138 90.3265 553.286L91.0553 557.947C92.0491 558.076 93.0531 558.169 94.0797 558.169C95.1083 558.169 96.1123 558.076 97.104 557.947L97.8349 553.286C98.5474 553.138 99.2393 552.939 99.9209 552.715L102.904 556.413C104.789 555.633 106.536 554.596 108.129 553.37L106.423 548.945C106.957 548.468 107.464 547.961 107.941 547.427L112.365 549.134C113.591 547.54 114.626 545.793 115.406 543.91L111.708 540.924C111.934 540.245 112.133 539.553 112.279 538.838L116.942 538.109V538.109Z" fill="#EB8E3E"/>
<path fill-rule="evenodd" clip-rule="evenodd" d="M94.0797 543.532C89.4149 543.532 85.633 539.75 85.633 535.084C85.633 530.417 89.4149 526.637 94.0797 526.637C98.7466 526.637 102.528 530.417 102.528 535.084C102.528 539.75 98.7466 543.532 94.0797 543.532ZM94.0818 521.495C86.5774 521.495 80.4939 527.579 80.4939 535.084C80.4939 542.588 86.5774 548.672 94.0818 548.672C101.584 548.672 107.668 542.588 107.668 535.084C107.668 527.579 101.584 521.495 94.0818 521.495V521.495Z" fill="#0C0A21"/>
<path fill-rule="evenodd" clip-rule="evenodd" d="M197.082 580.167C190.407 580.167 184.999 574.758 184.999 568.084C184.999 561.411 190.407 556 197.082 556C203.752 556 209.163 561.411 209.163 568.084C209.163 574.758 203.752 580.167 197.082 580.167ZM219.942 571.109C220.071 570.117 220.161 569.111 220.161 568.084C220.161 567.056 220.071 566.051 219.942 565.06L215.279 564.329C215.133 563.616 214.934 562.924 214.708 562.242L218.406 559.259C217.626 557.374 216.591 555.626 215.365 554.033L210.941 555.739C210.464 555.205 209.957 554.698 209.423 554.222L211.129 549.797C209.536 548.571 207.789 547.536 205.904 546.756L202.921 550.454C202.239 550.228 201.547 550.029 200.835 549.883L200.104 545.22C199.112 545.09 198.108 545 197.08 545C196.053 545 195.049 545.09 194.055 545.22L193.326 549.883C192.614 550.029 191.92 550.228 191.24 550.454L188.257 546.756C186.372 547.536 184.625 548.571 183.032 549.797L184.738 554.222C184.202 554.698 183.697 555.205 183.221 555.739L178.796 554.033C177.57 555.626 176.536 557.374 175.755 559.259L179.451 562.242C179.227 562.924 179.028 563.616 178.88 564.329L174.22 565.06C174.088 566.051 174 567.056 174 568.084C174 569.111 174.088 570.117 174.22 571.109L178.88 571.838C179.028 572.553 179.227 573.245 179.451 573.924L175.755 576.91C176.536 578.793 177.57 580.54 178.796 582.134L183.221 580.427C183.697 580.961 184.202 581.468 184.738 581.945L183.032 586.37C184.625 587.596 186.372 588.633 188.257 589.413L191.24 585.715C191.92 585.941 192.614 586.138 193.326 586.286L194.055 590.947C195.049 591.076 196.053 591.169 197.08 591.169C198.108 591.169 199.112 591.076 200.104 590.947L200.835 586.286C201.547 586.138 202.239 585.939 202.921 585.715L205.904 589.413C207.789 588.633 209.536 587.596 211.129 586.37L209.423 581.945C209.957 581.468 210.464 580.961 210.941 580.427L215.365 582.134C216.591 580.54 217.626 578.793 218.406 576.91L214.708 573.924C214.934 573.245 215.133 572.553 215.279 571.838L219.942 571.109V571.109Z" fill="#EB8E3E"/>
<path fill-rule="evenodd" clip-rule="evenodd" d="M197.08 576.532C192.415 576.532 188.633 572.75 188.633 568.084C188.633 563.417 192.415 559.637 197.08 559.637C201.747 559.637 205.528 563.417 205.528 568.084C205.528 572.75 201.747 576.532 197.08 576.532ZM197.082 554.495C189.577 554.495 183.494 560.579 183.494 568.084C183.494 575.588 189.577 581.672 197.082 581.672C204.584 581.672 210.668 575.588 210.668 568.084C210.668 560.579 204.584 554.495 197.082 554.495V554.495Z" fill="#0C0A21"/>
<path fill-rule="evenodd" clip-rule="evenodd" d="M437 -95L437 123.367H493.76V211.727H550.52V300.085H607.28V388.445L664.04 388.445V476.805H735.776L735.776 -95H437" fill="url(#paint4_linear_2134_34)"/>
</g>
<defs>
<linearGradient id="paint0_linear_2134_34" x1="296.143" y1="441" x2="137" y2="441" gradientUnits="userSpaceOnUse">
<stop stop-color="#8C32F0"/>
<stop offset="1" stop-color="#E73587"/>
</linearGradient>
<linearGradient id="paint1_linear_2134_34" x1="259.652" y1="477.495" x2="173.493" y2="477.495" gradientUnits="userSpaceOnUse">
<stop stop-color="#8C32F0"/>
<stop offset="1" stop-color="#E73587"/>
</linearGradient>
<linearGradient id="paint2_linear_2134_34" x1="230.257" y1="506.894" x2="202.888" y2="506.894" gradientUnits="userSpaceOnUse">
<stop stop-color="#8C32F0"/>
<stop offset="1" stop-color="#E73587"/>
</linearGradient>
<linearGradient id="paint3_linear_2134_34" x1="174" y1="545" x2="99" y2="545" gradientUnits="userSpaceOnUse">
<stop stop-color="#8C32F0"/>
<stop offset="1" stop-color="#E73587"/>
</linearGradient>
<linearGradient id="paint4_linear_2134_34" x1="437" y1="-95" x2="437" y2="476.805" gradientUnits="userSpaceOnUse">
<stop stop-color="#8C32F0"/>
<stop offset="1" stop-color="#E73587"/>
</linearGradient>
<clipPath id="clip0_2134_34">
<rect width="600" height="750" fill="white"/>
</clipPath>
</defs>
</svg>
