<svg width="139" height="52" viewBox="0 0 139 52" fill="none" xmlns="http://www.w3.org/2000/svg">
<g filter="url(#filter0_d_203_855)">
<rect width="135" height="48" fill="white"/>
<rect x="16" y="14" width="20" height="20" rx="10" fill="#191717"/>
<path fill-rule="evenodd" clip-rule="evenodd" d="M25.9976 17.5C24.3728 17.5008 22.8013 18.0763 21.5641 19.1235C20.3268 20.1707 19.5045 21.6214 19.2442 23.2161C18.984 24.8108 19.3026 26.4455 20.1433 27.828C20.984 29.2106 22.2918 30.2507 23.8329 30.7624C24.1729 30.8255 24.301 30.6148 24.301 30.4356C24.301 30.2564 24.2942 29.7369 24.2919 29.169C22.3879 29.5803 21.9856 28.3655 21.9856 28.3655C21.6751 27.5767 21.2263 27.3693 21.2263 27.3693C20.6052 26.9479 21.2727 26.9557 21.2727 26.9557C21.9607 27.0042 22.3222 27.6578 22.3222 27.6578C22.9319 28.6979 23.9236 28.397 24.3135 28.2212C24.3747 27.7806 24.5526 27.4809 24.7487 27.3107C23.2277 27.1394 21.6297 26.5557 21.6297 23.9481C21.6203 23.2718 21.8727 22.6178 22.3347 22.1214C22.2644 21.9501 22.0298 21.2582 22.4015 20.3184C22.4015 20.3184 22.9761 20.1358 24.284 21.0159C25.4058 20.7109 26.5894 20.7109 27.7112 21.0159C29.018 20.1358 29.5914 20.3184 29.5914 20.3184C29.9643 21.2559 29.7297 21.9478 29.6594 22.1214C30.1229 22.6179 30.3758 23.273 30.3655 23.9503C30.3655 26.5636 28.7641 27.1394 27.2409 27.3073C27.4857 27.5192 27.7044 27.9328 27.7044 28.5683C27.7044 29.4789 27.6965 30.2113 27.6965 30.4356C27.6965 30.617 27.82 30.8289 28.1668 30.7624C29.7082 30.2506 31.0161 29.2103 31.8568 27.8276C32.6974 26.4448 33.0159 24.8098 32.7554 23.215C32.4948 21.6201 31.6721 20.1695 30.4344 19.1224C29.1968 18.0754 27.6249 17.5003 25.9999 17.5H25.9976Z" fill="white"/>
<path d="M21.7452 27.2713C21.7305 27.3051 21.6761 27.3152 21.6319 27.2915C21.5877 27.2679 21.5548 27.2239 21.5707 27.189C21.5866 27.1541 21.6398 27.145 21.684 27.1687C21.7282 27.1924 21.7622 27.2375 21.7452 27.2713Z" fill="white"/>
<path d="M22.0228 27.5789C21.9993 27.5907 21.9725 27.594 21.9468 27.5882C21.9212 27.5824 21.8984 27.568 21.8823 27.5474C21.8381 27.5 21.829 27.4347 21.863 27.4054C21.897 27.3761 21.9582 27.3896 22.0024 27.4369C22.0466 27.4843 22.0568 27.5496 22.0228 27.5789Z" fill="white"/>
<path d="M22.2926 27.9699C22.2507 27.9992 22.1793 27.9699 22.1396 27.9113C22.1286 27.9008 22.1199 27.8882 22.114 27.8743C22.108 27.8603 22.1049 27.8454 22.1049 27.8302C22.1049 27.8151 22.108 27.8001 22.114 27.7861C22.1199 27.7722 22.1286 27.7596 22.1396 27.7491C22.1815 27.7209 22.2529 27.7491 22.2926 27.8065C22.3323 27.864 22.3334 27.9406 22.2926 27.9699V27.9699Z" fill="white"/>
<path d="M22.6587 28.3486C22.6213 28.3903 22.5454 28.379 22.483 28.3227C22.4207 28.2663 22.406 28.1897 22.4434 28.1491C22.4808 28.1086 22.5567 28.1198 22.6213 28.175C22.6859 28.2303 22.6984 28.308 22.6587 28.3486V28.3486Z" fill="white"/>
<path d="M23.172 28.5694C23.155 28.6224 23.0779 28.646 23.0009 28.6235C22.9238 28.601 22.8728 28.5379 22.8875 28.4838C22.9023 28.4297 22.9805 28.4049 23.0587 28.4297C23.1369 28.4545 23.1867 28.5142 23.172 28.5694Z" fill="white"/>
<path d="M23.7319 28.6077C23.7319 28.663 23.6685 28.7103 23.5869 28.7114C23.5053 28.7125 23.4384 28.6675 23.4384 28.6122C23.4384 28.557 23.5019 28.5097 23.5835 28.5086C23.6651 28.5074 23.7319 28.5514 23.7319 28.6077Z" fill="white"/>
<path d="M24.2533 28.521C24.2635 28.5762 24.2068 28.6337 24.1252 28.6472C24.0436 28.6608 23.9722 28.6281 23.962 28.574C23.9518 28.5199 24.0108 28.4613 24.0901 28.4467C24.1694 28.432 24.2431 28.4658 24.2533 28.521Z" fill="white"/>
<path d="M45.0801 19.7236C45.3125 19.7145 45.57 19.7031 45.8525 19.6895C46.0986 19.6803 46.3857 19.6712 46.7139 19.6621C47.0465 19.653 47.4111 19.6484 47.8076 19.6484C48.5186 19.6484 49.1475 19.7441 49.6943 19.9355C50.2412 20.1224 50.7015 20.4072 51.0752 20.79C51.4535 21.1729 51.7383 21.6536 51.9297 22.2324C52.1257 22.8112 52.2236 23.4902 52.2236 24.2695C52.2236 25.0488 52.1188 25.7347 51.9092 26.3271C51.6995 26.915 51.3988 27.4072 51.0068 27.8037C50.6195 28.2002 50.1478 28.4987 49.5918 28.6992C49.0358 28.8997 48.4092 29 47.7119 29H45.0801V19.7236ZM47.9443 27.8037C48.3682 27.8037 48.7464 27.7148 49.0791 27.5371C49.4118 27.3548 49.6943 27.1064 49.9268 26.792C50.1592 26.473 50.3369 26.1016 50.46 25.6777C50.583 25.2493 50.6445 24.7891 50.6445 24.2969C50.6445 23.7272 50.583 23.2282 50.46 22.7998C50.3369 22.3669 50.1592 22.0046 49.9268 21.7129C49.6943 21.4212 49.4118 21.2025 49.0791 21.0566C48.7464 20.9108 48.3682 20.8379 47.9443 20.8379C47.7119 20.8379 47.5114 20.8402 47.3428 20.8447C47.1742 20.8493 47.0374 20.8538 46.9326 20.8584C46.8096 20.8675 46.707 20.8743 46.625 20.8789V27.8037H47.9443ZM53.5371 28.0566L56.1758 24.1191L57.167 23.1211L53.9746 23.1279C53.9427 23.0094 53.9154 22.9001 53.8926 22.7998C53.8698 22.695 53.8584 22.5765 53.8584 22.4443C53.8584 22.3669 53.8607 22.3031 53.8652 22.2529C53.8743 22.1982 53.8835 22.1527 53.8926 22.1162C53.9062 22.0752 53.9199 22.0387 53.9336 22.0068H58.6367L58.7051 22.998L56.0938 26.71L55.0615 27.8857H58.7666C58.7666 27.9222 58.7689 27.9587 58.7734 27.9951C58.778 28.027 58.7803 28.0635 58.7803 28.1045C58.7848 28.141 58.7871 28.1751 58.7871 28.207C58.7871 28.3027 58.7757 28.4167 58.7529 28.5488C58.7347 28.681 58.6891 28.8314 58.6162 29H53.6055L53.5371 28.0566ZM61.3789 20.8311C61.2513 20.8311 61.1305 20.8083 61.0166 20.7627C60.9072 20.7171 60.8092 20.6556 60.7227 20.5781C60.6406 20.5007 60.5745 20.4118 60.5244 20.3115C60.4743 20.2067 60.4492 20.0951 60.4492 19.9766C60.4492 19.8535 60.4743 19.7396 60.5244 19.6348C60.5745 19.5299 60.6406 19.4388 60.7227 19.3613C60.8092 19.2839 60.9072 19.2246 61.0166 19.1836C61.1305 19.138 61.2513 19.1152 61.3789 19.1152C61.5065 19.1152 61.6273 19.138 61.7412 19.1836C61.8551 19.2246 61.9531 19.2839 62.0352 19.3613C62.1217 19.4388 62.1901 19.5299 62.2402 19.6348C62.2904 19.7396 62.3154 19.8535 62.3154 19.9766C62.3154 20.0951 62.2904 20.2067 62.2402 20.3115C62.1901 20.4118 62.1217 20.5007 62.0352 20.5781C61.9531 20.6556 61.8551 20.7171 61.7412 20.7627C61.6273 20.8083 61.5065 20.8311 61.3789 20.8311ZM60.5928 22.0137H62.0146V27.8516L62.418 28.1387V29H62.0283L62.0146 28.9863V29C61.5635 29 61.2126 28.9089 60.9619 28.7266C60.7158 28.5443 60.5928 28.2435 60.5928 27.8242V22.0137ZM64.627 19.1562H66.0215V24.3584L65.9531 25.3496L66.3154 24.9189L68.5098 22.0137H70.1641L67.9424 24.8301L67.375 25.3701L67.8193 25.7734L70.2871 29H68.626L66.2744 25.8418L65.9531 25.4316L66.0215 26.6758V29H64.627V19.1562ZM72.7422 21.9385L73.4463 22.6768C73.4964 22.5628 73.5602 22.4557 73.6377 22.3555C73.7197 22.2507 73.8132 22.1595 73.918 22.082C74.0273 22.0046 74.1481 21.943 74.2803 21.8975C74.417 21.8519 74.5651 21.8291 74.7246 21.8291C74.8568 21.8291 74.9844 21.8405 75.1074 21.8633C75.2305 21.8815 75.3649 21.9157 75.5107 21.9658C75.5153 21.9749 75.5199 22.0114 75.5244 22.0752C75.5335 22.139 75.5381 22.2188 75.5381 22.3145C75.5381 22.3874 75.5335 22.474 75.5244 22.5742C75.5153 22.6699 75.4993 22.7702 75.4766 22.875C75.4583 22.9753 75.4287 23.0755 75.3877 23.1758C75.3512 23.276 75.3034 23.3626 75.2441 23.4355L75.1143 23.4697C75.0231 23.4242 74.9206 23.3854 74.8066 23.3535C74.6973 23.3216 74.5833 23.3057 74.4648 23.3057C74.2826 23.3057 74.1299 23.3193 74.0068 23.3467C73.8838 23.3695 73.7835 23.3945 73.7061 23.4219C73.6149 23.4538 73.542 23.4902 73.4873 23.5312V29H72.0244V23.2646L71.4844 22.7109V21.9385H72.7422ZM77.9863 20.8311C77.8587 20.8311 77.738 20.8083 77.624 20.7627C77.5146 20.7171 77.4167 20.6556 77.3301 20.5781C77.248 20.5007 77.182 20.4118 77.1318 20.3115C77.0817 20.2067 77.0566 20.0951 77.0566 19.9766C77.0566 19.8535 77.0817 19.7396 77.1318 19.6348C77.182 19.5299 77.248 19.4388 77.3301 19.3613C77.4167 19.2839 77.5146 19.2246 77.624 19.1836C77.738 19.138 77.8587 19.1152 77.9863 19.1152C78.1139 19.1152 78.2347 19.138 78.3486 19.1836C78.4626 19.2246 78.5605 19.2839 78.6426 19.3613C78.7292 19.4388 78.7975 19.5299 78.8477 19.6348C78.8978 19.7396 78.9229 19.8535 78.9229 19.9766C78.9229 20.0951 78.8978 20.2067 78.8477 20.3115C78.7975 20.4118 78.7292 20.5007 78.6426 20.5781C78.5605 20.6556 78.4626 20.7171 78.3486 20.7627C78.2347 20.8083 78.1139 20.8311 77.9863 20.8311ZM77.2002 22.0137H78.6221V27.8516L79.0254 28.1387V29H78.6357L78.6221 28.9863V29C78.1709 29 77.82 28.9089 77.5693 28.7266C77.3232 28.5443 77.2002 28.2435 77.2002 27.8242V22.0137ZM80.7627 28.5762C80.7809 28.4714 80.8105 28.3574 80.8516 28.2344C80.888 28.1296 80.9359 28.0065 80.9951 27.8652C81.0589 27.724 81.1432 27.5736 81.248 27.4141C81.3939 27.5143 81.5579 27.6055 81.7402 27.6875C81.8952 27.7559 82.0752 27.8197 82.2803 27.8789C82.4854 27.9336 82.7041 27.9609 82.9365 27.9609C83.3376 27.9609 83.6702 27.9062 83.9346 27.7969C84.2035 27.6829 84.4176 27.5371 84.5771 27.3594C84.7367 27.1771 84.8483 26.9743 84.9121 26.751C84.9759 26.5277 85.0078 26.3021 85.0078 26.0742C85.0078 25.4818 84.8506 25.0465 84.5361 24.7686C84.2262 24.4906 83.7728 24.3516 83.1758 24.3516C82.9935 24.3516 82.8203 24.3698 82.6562 24.4062C82.4922 24.4427 82.3464 24.4814 82.2188 24.5225C82.0684 24.5726 81.9316 24.6273 81.8086 24.6865C81.7038 24.5954 81.6172 24.5042 81.5488 24.4131C81.4805 24.3219 81.4258 24.2399 81.3848 24.167C81.3346 24.085 81.2959 24.0075 81.2686 23.9346C81.3005 23.4469 81.3324 22.957 81.3643 22.4648C81.3779 22.2552 81.3916 22.0342 81.4053 21.8018C81.4235 21.5693 81.4395 21.3346 81.4531 21.0977C81.4668 20.8561 81.4805 20.6191 81.4941 20.3867C81.5078 20.1497 81.5192 19.9219 81.5283 19.7031H86.2383C86.2383 19.735 86.2406 19.7692 86.2451 19.8057C86.2497 19.8376 86.252 19.874 86.252 19.915C86.2565 19.9561 86.2588 19.9993 86.2588 20.0449C86.2588 20.1497 86.2428 20.291 86.2109 20.4688C86.179 20.6465 86.1084 20.8379 85.999 21.043C85.7074 21.0339 85.3906 21.0225 85.0488 21.0088C84.7572 20.9997 84.4222 20.9906 84.0439 20.9814C83.6657 20.9723 83.2692 20.9678 82.8545 20.9678L82.6836 23.5107C82.8568 23.4424 83.0322 23.3968 83.21 23.374C83.3923 23.3512 83.5654 23.3398 83.7295 23.3398C84.1624 23.3398 84.5521 23.4014 84.8984 23.5244C85.2493 23.6475 85.5456 23.8229 85.7871 24.0508C86.0332 24.2741 86.2223 24.5452 86.3545 24.8643C86.4867 25.1833 86.5527 25.541 86.5527 25.9375C86.5527 26.4251 86.4753 26.8672 86.3203 27.2637C86.1699 27.6556 85.9489 27.9906 85.6572 28.2686C85.3656 28.5465 85.0078 28.7607 84.584 28.9111C84.1602 29.0615 83.6794 29.1367 83.1416 29.1367C82.8135 29.1367 82.5059 29.1071 82.2188 29.0479C81.9362 28.9932 81.6855 28.9294 81.4668 28.8564C81.2161 28.7744 80.9814 28.681 80.7627 28.5762ZM88.0918 27.9541C88.6979 27.4528 89.2197 26.9948 89.6572 26.5801C90.0947 26.1608 90.4639 25.778 90.7646 25.4316C91.07 25.0853 91.3138 24.7686 91.4961 24.4814C91.6829 24.1943 91.8265 23.9323 91.9268 23.6953C92.027 23.4583 92.0931 23.2419 92.125 23.0459C92.1615 22.8454 92.1797 22.6585 92.1797 22.4854C92.1797 22.2119 92.1364 21.9681 92.0498 21.7539C91.9632 21.5352 91.8447 21.3506 91.6943 21.2002C91.5485 21.0452 91.3776 20.929 91.1816 20.8516C90.9857 20.7695 90.7806 20.7285 90.5664 20.7285C90.3613 20.7285 90.1631 20.7604 89.9717 20.8242C89.7848 20.8835 89.6071 20.9609 89.4385 21.0566C89.2744 21.1478 89.1217 21.2503 88.9805 21.3643C88.8438 21.4782 88.723 21.5898 88.6182 21.6992C88.5088 21.5306 88.4176 21.3757 88.3447 21.2344C88.2718 21.0931 88.2126 20.9701 88.167 20.8652C88.1169 20.7467 88.0781 20.6374 88.0508 20.5371C88.1191 20.4733 88.2285 20.3867 88.3789 20.2773C88.5339 20.168 88.7253 20.0609 88.9531 19.9561C89.1855 19.8512 89.4521 19.7601 89.7529 19.6826C90.0583 19.6051 90.3978 19.5664 90.7715 19.5664C91.1953 19.5664 91.5804 19.6302 91.9268 19.7578C92.2731 19.8854 92.5671 20.0677 92.8086 20.3047C93.0547 20.5371 93.2438 20.8197 93.376 21.1523C93.5081 21.485 93.5742 21.8564 93.5742 22.2666C93.5742 22.5264 93.556 22.7839 93.5195 23.0391C93.4831 23.2943 93.4147 23.5563 93.3145 23.8252C93.2142 24.0941 93.0752 24.3743 92.8975 24.666C92.7243 24.9531 92.4987 25.263 92.2207 25.5957C91.9427 25.9238 91.6077 26.2747 91.2158 26.6484C90.8239 27.0221 90.3613 27.4277 89.8281 27.8652C90.0469 27.8652 90.2702 27.863 90.498 27.8584C90.7305 27.8493 90.9606 27.8402 91.1885 27.8311C91.4163 27.8174 91.6396 27.806 91.8584 27.7969C92.0771 27.7832 92.2822 27.7695 92.4736 27.7559C92.9248 27.7285 93.3691 27.6989 93.8066 27.667C93.8066 27.708 93.8089 27.7536 93.8135 27.8037C93.818 27.8447 93.8203 27.8903 93.8203 27.9404C93.8249 27.986 93.8271 28.0339 93.8271 28.084C93.8271 28.2207 93.8135 28.3734 93.7861 28.542C93.7588 28.7061 93.7041 28.8587 93.6221 29H88.0918V27.9541ZM95.3047 26.498C95.209 26.3887 95.1315 26.2725 95.0723 26.1494C95.0176 26.0218 94.9743 25.9056 94.9424 25.8008C94.9059 25.6777 94.8809 25.5547 94.8672 25.4316L98.0732 19.252C98.292 19.3021 98.4971 19.3568 98.6885 19.416C98.8525 19.4661 99.012 19.5277 99.167 19.6006C99.3265 19.6735 99.4427 19.7533 99.5156 19.8398L99.5225 19.9424C99.249 20.4027 98.9665 20.888 98.6748 21.3984C98.5518 21.6172 98.4173 21.8519 98.2715 22.1025C98.1302 22.3532 97.9821 22.613 97.8271 22.8818C97.6722 23.1507 97.515 23.4287 97.3555 23.7158C97.196 23.9984 97.0387 24.2832 96.8838 24.5703L96.207 25.4453H99.0713V23.5859C99.2308 23.4674 99.3994 23.3763 99.5771 23.3125C99.7594 23.2441 99.9281 23.1917 100.083 23.1553C100.265 23.1188 100.443 23.096 100.616 23.0869V25.4453H101.744C101.749 25.4772 101.753 25.5114 101.758 25.5479C101.762 25.5798 101.765 25.6139 101.765 25.6504C101.769 25.6823 101.771 25.7142 101.771 25.7461C101.771 25.8464 101.758 25.958 101.73 26.0811C101.708 26.1995 101.655 26.3385 101.573 26.498H100.616V29H99.0713V26.498H95.3047ZM103.693 24.8096C103.693 23.9346 103.773 23.1689 103.933 22.5127C104.097 21.8564 104.331 21.3096 104.637 20.8721C104.947 20.4346 105.323 20.1087 105.765 19.8945C106.211 19.6758 106.717 19.5664 107.282 19.5664C107.633 19.5664 107.938 19.5892 108.198 19.6348C108.463 19.6803 108.686 19.7305 108.868 19.7852C109.078 19.849 109.26 19.9196 109.415 19.9971C109.41 20.0928 109.39 20.1999 109.354 20.3184C109.322 20.4232 109.271 20.5485 109.203 20.6943C109.135 20.8356 109.035 20.9928 108.902 21.166C108.779 21.0977 108.638 21.0384 108.479 20.9883C108.342 20.9427 108.173 20.9017 107.973 20.8652C107.772 20.8242 107.542 20.8037 107.282 20.8037C106.913 20.8037 106.601 20.8812 106.346 21.0361C106.09 21.1865 105.881 21.3893 105.717 21.6445C105.553 21.8952 105.43 22.1823 105.348 22.5059C105.27 22.8249 105.222 23.1553 105.204 23.4971C105.272 23.4469 105.373 23.3923 105.505 23.333C105.637 23.2692 105.792 23.21 105.97 23.1553C106.152 23.1006 106.35 23.055 106.564 23.0186C106.783 22.9821 107.009 22.9639 107.241 22.9639C107.624 22.9639 107.979 23.0231 108.308 23.1416C108.636 23.2555 108.918 23.4355 109.155 23.6816C109.392 23.9277 109.577 24.2422 109.709 24.625C109.846 25.0033 109.914 25.459 109.914 25.9922C109.914 26.4707 109.839 26.9014 109.688 27.2842C109.538 27.6624 109.326 27.9837 109.053 28.248C108.779 28.5124 108.451 28.7152 108.068 28.8564C107.686 28.9977 107.262 29.0684 106.797 29.0684C106.182 29.0684 105.674 28.9567 105.272 28.7334C104.876 28.5101 104.559 28.207 104.322 27.8242C104.09 27.4368 103.926 26.9857 103.83 26.4707C103.739 25.9512 103.693 25.3975 103.693 24.8096ZM105.204 24.6387C105.19 24.8118 105.186 25.0124 105.19 25.2402C105.195 25.4635 105.215 25.696 105.252 25.9375C105.288 26.179 105.343 26.416 105.416 26.6484C105.489 26.8809 105.585 27.0882 105.703 27.2705C105.826 27.4528 105.974 27.6009 106.147 27.7148C106.325 27.8242 106.533 27.8789 106.77 27.8789C107.057 27.8789 107.3 27.8288 107.501 27.7285C107.706 27.6237 107.872 27.4824 108 27.3047C108.132 27.127 108.228 26.9196 108.287 26.6826C108.346 26.4456 108.376 26.1927 108.376 25.9238C108.376 25.3177 108.232 24.8597 107.945 24.5498C107.663 24.2354 107.282 24.0781 106.804 24.0781C106.653 24.0781 106.501 24.0918 106.346 24.1191C106.191 24.1465 106.043 24.1852 105.901 24.2354C105.765 24.2809 105.635 24.3379 105.512 24.4062C105.393 24.4746 105.291 24.5521 105.204 24.6387ZM111.836 26.498C111.74 26.3887 111.663 26.2725 111.604 26.1494C111.549 26.0218 111.506 25.9056 111.474 25.8008C111.437 25.6777 111.412 25.5547 111.398 25.4316L114.604 19.252C114.823 19.3021 115.028 19.3568 115.22 19.416C115.384 19.4661 115.543 19.5277 115.698 19.6006C115.858 19.6735 115.974 19.7533 116.047 19.8398L116.054 19.9424C115.78 20.4027 115.498 20.888 115.206 21.3984C115.083 21.6172 114.949 21.8519 114.803 22.1025C114.661 22.3532 114.513 22.613 114.358 22.8818C114.203 23.1507 114.046 23.4287 113.887 23.7158C113.727 23.9984 113.57 24.2832 113.415 24.5703L112.738 25.4453H115.603V23.5859C115.762 23.4674 115.931 23.3763 116.108 23.3125C116.291 23.2441 116.459 23.1917 116.614 23.1553C116.797 23.1188 116.974 23.096 117.147 23.0869V25.4453H118.275C118.28 25.4772 118.285 25.5114 118.289 25.5479C118.294 25.5798 118.296 25.6139 118.296 25.6504C118.3 25.6823 118.303 25.7142 118.303 25.7461C118.303 25.8464 118.289 25.958 118.262 26.0811C118.239 26.1995 118.187 26.3385 118.104 26.498H117.147V29H115.603V26.498H111.836Z" fill="black"/>
<rect x="0.5" y="0.5" width="134" height="47" stroke="black"/>
</g>
<defs>
<filter id="filter0_d_203_855" x="0" y="0" width="139" height="52" filterUnits="userSpaceOnUse" color-interpolation-filters="sRGB">
<feFlood flood-opacity="0" result="BackgroundImageFix"/>
<feColorMatrix in="SourceAlpha" type="matrix" values="0 0 0 0 0 0 0 0 0 0 0 0 0 0 0 0 0 0 127 0" result="hardAlpha"/>
<feOffset dx="4" dy="4"/>
<feComposite in2="hardAlpha" operator="out"/>
<feColorMatrix type="matrix" values="0 0 0 0 0 0 0 0 0 0 0 0 0 0 0 0 0 0 1 0"/>
<feBlend mode="normal" in2="BackgroundImageFix" result="effect1_dropShadow_203_855"/>
<feBlend mode="normal" in="SourceGraphic" in2="effect1_dropShadow_203_855" result="shape"/>
</filter>
</defs>
</svg>
