<svg width="84" height="52" viewBox="0 0 84 52" fill="none" xmlns="http://www.w3.org/2000/svg">
<g filter="url(#filter0_d_203_889)">
<rect width="80" height="48" fill="white"/>
<rect x="16" y="14" width="20" height="20" rx="10" fill="#191717"/>
<path fill-rule="evenodd" clip-rule="evenodd" d="M25.9976 17.5C24.3728 17.5008 22.8013 18.0763 21.5641 19.1235C20.3268 20.1707 19.5045 21.6214 19.2442 23.2161C18.984 24.8108 19.3026 26.4455 20.1433 27.828C20.984 29.2106 22.2918 30.2507 23.8329 30.7624C24.1729 30.8255 24.301 30.6148 24.301 30.4356C24.301 30.2564 24.2942 29.7369 24.2919 29.169C22.3879 29.5803 21.9856 28.3655 21.9856 28.3655C21.6751 27.5767 21.2263 27.3693 21.2263 27.3693C20.6052 26.9479 21.2727 26.9557 21.2727 26.9557C21.9607 27.0042 22.3222 27.6578 22.3222 27.6578C22.9319 28.6979 23.9236 28.397 24.3135 28.2212C24.3747 27.7806 24.5526 27.4809 24.7487 27.3107C23.2277 27.1394 21.6297 26.5557 21.6297 23.9481C21.6203 23.2718 21.8727 22.6178 22.3347 22.1214C22.2644 21.9501 22.0298 21.2582 22.4015 20.3184C22.4015 20.3184 22.9761 20.1358 24.284 21.0159C25.4058 20.7109 26.5894 20.7109 27.7112 21.0159C29.018 20.1358 29.5914 20.3184 29.5914 20.3184C29.9643 21.2559 29.7297 21.9478 29.6594 22.1214C30.1229 22.6179 30.3758 23.273 30.3655 23.9503C30.3655 26.5636 28.7641 27.1394 27.2409 27.3073C27.4857 27.5192 27.7044 27.9328 27.7044 28.5683C27.7044 29.4789 27.6965 30.2113 27.6965 30.4356C27.6965 30.617 27.82 30.8289 28.1668 30.7624C29.7082 30.2506 31.0161 29.2103 31.8568 27.8276C32.6974 26.4448 33.0159 24.8098 32.7554 23.215C32.4948 21.6201 31.6721 20.1695 30.4344 19.1224C29.1968 18.0754 27.6249 17.5003 25.9999 17.5H25.9976Z" fill="white"/>
<path d="M21.7452 27.2713C21.7305 27.3051 21.6761 27.3152 21.6319 27.2915C21.5877 27.2679 21.5548 27.2239 21.5707 27.189C21.5866 27.1541 21.6398 27.145 21.684 27.1687C21.7282 27.1924 21.7622 27.2375 21.7452 27.2713Z" fill="white"/>
<path d="M22.0228 27.5789C21.9993 27.5907 21.9725 27.594 21.9468 27.5882C21.9212 27.5824 21.8984 27.568 21.8823 27.5474C21.8381 27.5 21.829 27.4347 21.863 27.4054C21.897 27.3761 21.9582 27.3896 22.0024 27.4369C22.0466 27.4843 22.0568 27.5496 22.0228 27.5789Z" fill="white"/>
<path d="M22.2926 27.9699C22.2507 27.9992 22.1793 27.9699 22.1396 27.9113C22.1286 27.9008 22.1199 27.8882 22.114 27.8743C22.108 27.8603 22.1049 27.8454 22.1049 27.8302C22.1049 27.8151 22.108 27.8001 22.114 27.7861C22.1199 27.7722 22.1286 27.7596 22.1396 27.7491C22.1815 27.7209 22.2529 27.7491 22.2926 27.8065C22.3323 27.864 22.3334 27.9406 22.2926 27.9699V27.9699Z" fill="white"/>
<path d="M22.6587 28.3486C22.6213 28.3903 22.5454 28.379 22.483 28.3227C22.4207 28.2663 22.406 28.1897 22.4434 28.1491C22.4808 28.1086 22.5567 28.1198 22.6213 28.175C22.6859 28.2303 22.6984 28.308 22.6587 28.3486V28.3486Z" fill="white"/>
<path d="M23.172 28.5694C23.155 28.6224 23.0779 28.646 23.0009 28.6235C22.9238 28.601 22.8728 28.5379 22.8875 28.4838C22.9023 28.4297 22.9805 28.4049 23.0587 28.4297C23.1369 28.4545 23.1867 28.5142 23.172 28.5694Z" fill="white"/>
<path d="M23.7319 28.6077C23.7319 28.663 23.6685 28.7103 23.5869 28.7114C23.5053 28.7125 23.4384 28.6675 23.4384 28.6122C23.4384 28.557 23.5019 28.5097 23.5835 28.5086C23.6651 28.5074 23.7319 28.5514 23.7319 28.6077Z" fill="white"/>
<path d="M24.2533 28.521C24.2635 28.5762 24.2068 28.6337 24.1252 28.6472C24.0436 28.6608 23.9722 28.6281 23.962 28.574C23.9518 28.5199 24.0108 28.4613 24.0901 28.4467C24.1694 28.432 24.2431 28.4658 24.2533 28.521Z" fill="white"/>
<path d="M45.0801 19.7168H46.625V29H45.0801V19.7168ZM48.6426 27.0039C48.6426 26.6257 48.6973 26.3044 48.8066 26.04C48.916 25.7757 49.0755 25.5592 49.2852 25.3906C49.4993 25.222 49.7568 25.0967 50.0576 25.0146C50.363 24.9281 50.7116 24.8734 51.1035 24.8506L52.6279 24.7686V24.2217C52.6279 23.9756 52.6051 23.7728 52.5596 23.6133C52.5186 23.4538 52.4479 23.3262 52.3477 23.2305C52.2474 23.1348 52.113 23.0687 51.9443 23.0322C51.7803 22.9912 51.5752 22.9707 51.3291 22.9707C51.083 22.9707 50.8483 22.998 50.625 23.0527C50.4062 23.1074 50.2148 23.1667 50.0508 23.2305C49.8548 23.3079 49.6748 23.3945 49.5107 23.4902C49.4105 23.349 49.3307 23.2145 49.2715 23.0869C49.2122 22.9548 49.1667 22.8363 49.1348 22.7314C49.0938 22.613 49.0664 22.499 49.0527 22.3896C49.2715 22.2803 49.5062 22.1846 49.7568 22.1025C49.9756 22.0296 50.2262 21.9635 50.5088 21.9043C50.7959 21.8451 51.0967 21.8154 51.4111 21.8154C51.9307 21.8154 52.3613 21.861 52.7031 21.9521C53.0449 22.0433 53.3161 22.1823 53.5166 22.3691C53.7217 22.5514 53.863 22.7839 53.9404 23.0664C54.0225 23.3444 54.0635 23.6748 54.0635 24.0576V27.8721L54.6377 28.5693V29H53.373L52.8467 28.3916H52.6006C52.5778 28.4144 52.5163 28.4668 52.416 28.5488C52.3203 28.6263 52.195 28.7106 52.04 28.8018C51.8896 28.8883 51.7165 28.9658 51.5205 29.0342C51.3291 29.1025 51.124 29.1367 50.9053 29.1367C50.5635 29.1367 50.2536 29.0866 49.9756 28.9863C49.6976 28.8815 49.4583 28.7357 49.2578 28.5488C49.0618 28.3574 48.9092 28.1318 48.7998 27.8721C48.695 27.6077 48.6426 27.3184 48.6426 27.0039ZM50.1328 26.8809C50.1328 27.0905 50.1624 27.266 50.2217 27.4072C50.2809 27.5439 50.363 27.6533 50.4678 27.7354C50.5771 27.8174 50.707 27.8743 50.8574 27.9062C51.0124 27.9382 51.1833 27.9541 51.3701 27.9541C51.5433 27.9541 51.7051 27.9336 51.8555 27.8926C52.0104 27.847 52.1449 27.7969 52.2588 27.7422C52.391 27.6829 52.514 27.6123 52.6279 27.5303V25.6914L51.2539 25.7803C51.0397 25.7939 50.8597 25.8304 50.7139 25.8896C50.5726 25.9489 50.4587 26.0264 50.3721 26.1221C50.2855 26.2178 50.224 26.3317 50.1875 26.4639C50.151 26.5915 50.1328 26.7305 50.1328 26.8809ZM56.5254 23.2646L55.9854 22.7109V21.9385H57.2432L57.8311 22.4717L58.0293 22.4307C58.0612 22.4033 58.1341 22.3555 58.248 22.2871C58.3665 22.2188 58.5101 22.1504 58.6787 22.082C58.8519 22.0137 59.0479 21.9544 59.2666 21.9043C59.4854 21.8496 59.7155 21.8223 59.957 21.8223C60.3398 21.8223 60.6794 21.8792 60.9756 21.9932C61.2764 22.1071 61.5293 22.2712 61.7344 22.4854C61.9395 22.695 62.0944 22.9479 62.1992 23.2441C62.304 23.5404 62.3564 23.873 62.3564 24.2422V29H60.8867V24.3857C60.8867 23.889 60.7819 23.5244 60.5723 23.292C60.3672 23.055 60.0391 22.9365 59.5879 22.9365C59.3646 22.9365 59.1572 22.957 58.9658 22.998C58.7744 23.0345 58.6058 23.0778 58.46 23.1279C58.2913 23.1826 58.1341 23.2464 57.9883 23.3193V29H56.5254V23.2646Z" fill="black"/>
<rect x="0.5" y="0.5" width="79" height="47" stroke="black"/>
</g>
<defs>
<filter id="filter0_d_203_889" x="0" y="0" width="84" height="52" filterUnits="userSpaceOnUse" color-interpolation-filters="sRGB">
<feFlood flood-opacity="0" result="BackgroundImageFix"/>
<feColorMatrix in="SourceAlpha" type="matrix" values="0 0 0 0 0 0 0 0 0 0 0 0 0 0 0 0 0 0 127 0" result="hardAlpha"/>
<feOffset dx="4" dy="4"/>
<feComposite in2="hardAlpha" operator="out"/>
<feColorMatrix type="matrix" values="0 0 0 0 0 0 0 0 0 0 0 0 0 0 0 0 0 0 1 0"/>
<feBlend mode="normal" in2="BackgroundImageFix" result="effect1_dropShadow_203_889"/>
<feBlend mode="normal" in="SourceGraphic" in2="effect1_dropShadow_203_889" result="shape"/>
</filter>
</defs>
</svg>
